HIERARCHY
ROOT Hips
{
	OFFSET 0.000000 0.000000 0.000000
	CHANNELS 6 Xposition Yposition Zposition Zrotation Xrotation Yrotation
	JOINT Spine1
	{
		OFFSET 0.000000 -2.776947 -0.000001
		CHANNELS 6 Xposition Yposition Zposition Zrotation Xrotation Yrotation
		JOINT Neck
		{
			OFFSET 0.000000 -2.213880 -0.000001
			CHANNELS 6 Xposition Yposition Zposition Zrotation Xrotation Yrotation
			JOINT Head
			{
				OFFSET 0.000000 -1.407680 -0.181636
				CHANNELS 6 Xposition Yposition Zposition Zrotation Xrotation Yrotation
				End Site
				{
					OFFSET 0.000000 -1.816356 -0.000001
				}
			}
		}
		JOINT LeftShoulder
		{
			OFFSET 0.365767 -1.787590 0.048012
			CHANNELS 6 Xposition Yposition Zposition Zrotation Xrotation Yrotation
			JOINT LeftArm
			{
				OFFSET 1.305160 0.000000 0.000000
				CHANNELS 6 Xposition Yposition Zposition Zrotation Xrotation Yrotation
				JOINT LeftForeArm
				{
					OFFSET 2.559210 0.000000 0.000000
					CHANNELS 6 Xposition Yposition Zposition Zrotation Xrotation Yrotation
					JOINT LeftHand
					{
						OFFSET 2.378449 0.000000 0.000000
						CHANNELS 6 Xposition Yposition Zposition Zrotation Xrotation Yrotation
						End Site
						{
							OFFSET 1.362267 0.000000 0.000000
						}
					}
				}
			}
		}
		JOINT RightShoulder
		{
			OFFSET -0.360721 -1.787590 0.048012
			CHANNELS 6 Xposition Yposition Zposition Zrotation Xrotation Yrotation
			JOINT RightArm
			{
				OFFSET -1.305160 0.000000 0.000000
				CHANNELS 6 Xposition Yposition Zposition Zrotation Xrotation Yrotation
				JOINT RightForeArm
				{
					OFFSET -2.559210 0.000000 0.000000
					CHANNELS 6 Xposition Yposition Zposition Zrotation Xrotation Yrotation
					JOINT RightHand
					{
						OFFSET -2.378450 0.000000 0.000000
						CHANNELS 6 Xposition Yposition Zposition Zrotation Xrotation Yrotation
						End Site
						{
							OFFSET -1.362267 0.000000 0.000000
						}
					}
				}
			}
		}
	}
	JOINT LeftUpLeg
	{
		OFFSET 0.908180 0.000000 0.000000
		CHANNELS 6 Xposition Yposition Zposition Zrotation Xrotation Yrotation
		JOINT LeftLeg
		{
			OFFSET 0.000000 3.819490 0.000001
			CHANNELS 6 Xposition Yposition Zposition Zrotation Xrotation Yrotation
			JOINT LeftFoot
			{
				OFFSET 0.000000 4.004300 0.000001
				CHANNELS 6 Xposition Yposition Zposition Zrotation Xrotation Yrotation
				JOINT LeftToeBase
				{
					OFFSET 0.000000 0.590317 -1.362270
					CHANNELS 6 Xposition Yposition Zposition Zrotation Xrotation Yrotation
					End Site
					{
						OFFSET 0.000000 0.000000 -0.363271
					}
				}
			}
		}
	}
	JOINT RightUpLeg
	{
		OFFSET -0.908180 0.000000 0.000000
		CHANNELS 6 Xposition Yposition Zposition Zrotation Xrotation Yrotation
		JOINT RightLeg
		{
			OFFSET 0.000000 3.819490 0.000001
			CHANNELS 6 Xposition Yposition Zposition Zrotation Xrotation Yrotation
			JOINT RightFoot
			{
				OFFSET 0.000000 4.004300 0.000001
				CHANNELS 6 Xposition Yposition Zposition Zrotation Xrotation Yrotation
				JOINT RightToeBase
				{
					OFFSET 0.000000 0.590317 -1.362270
					CHANNELS 6 Xposition Yposition Zposition Zrotation Xrotation Yrotation
					End Site
					{
						OFFSET 0.000000 0.000000 -0.363271
					}
				}
			}
		}
	}
}
MOTION
Frames: 9
Frame Time: 0.041667
-0.336805 -7.463962 -0.186042 -2.313432 17.800661 0.229060 0.000000 -2.776948 -0.000000 -7.697388 -20.184607 1.369360 -0.000000 -2.213881 -0.000001 2.860030 13.412662 -1.910105 0.000000 -1.407679 -0.181636 5.899101 5.084522 -2.273396 0.365767 -1.787590 0.048012 -18.563609 -7.523761 -3.257864 1.305160 0.000000 -0.000001 6.375483 -9.557313 12.688416 2.559211 0.000000 0.000000 3.011660 -4.558396 -1.884240 2.378447 -0.000002 -0.000001 -3.701252 -3.905556 -18.559962 -0.360721 -1.787591 0.048012 14.487374 0.100729 4.769656 -1.305161 0.000002 -0.000000 -18.880786 26.697809 -15.534159 -2.559209 0.000001 -0.000001 44.241642 -29.917280 -79.178469 -2.378450 0.000001 0.000000 31.463673 9.209390 1.968070 0.908180 -0.000001 0.000000 -28.588110 -30.008149 -30.053809 -0.000000 3.819489 0.000001 13.871565 31.500310 -20.047389 -0.000001 4.004301 0.000001 7.115349 1.251623 -17.707726 -0.000000 0.590316 -1.362269 0.000001 -0.000000 0.000001 -0.908180 -0.000000 0.000000 34.843175 -28.311653 4.525835 0.000001 3.819489 0.000001 -27.038122 21.607051 30.083527 0.000001 4.004301 0.000001 -9.131782 -9.123773 25.507615 -0.000000 0.590317 -1.362271 0.000001 -0.000001 0.000002 
-0.336684 -7.464567 -0.188082 -2.283905 17.766391 0.176542 0.000000 -2.776945 -0.000001 -7.697147 -20.162997 1.410686 -0.000000 -2.213881 -0.000001 2.866380 13.409866 -1.920446 -0.000000 -1.407681 -0.181637 5.920294 5.145978 -2.289296 0.365767 -1.787590 0.048012 -18.568378 -7.536281 -3.247974 1.305161 -0.000002 0.000000 6.421248 -9.598189 12.712364 2.559210 0.000001 -0.000000 3.016819 -4.539385 -1.910203 2.378448 0.000000 -0.000001 -3.686914 -3.888493 -18.548359 -0.360721 -1.787590 0.048012 14.491742 0.112286 4.775156 -1.305161 -0.000000 -0.000000 -18.925631 26.659767 -15.539304 -2.559209 0.000001 0.000000 44.183712 -29.879315 -79.238602 -2.378449 0.000003 -0.000001 31.522327 9.223679 1.919755 0.908180 0.000001 0.000000 -28.577614 -29.981894 -29.993980 -0.000000 3.819489 0.000001 13.863033 31.481230 -20.038769 -0.000000 4.004300 0.000001 7.121475 1.260416 -17.697500 0.000000 0.590318 -1.362270 0.000001 0.000000 0.000003 -0.908180 0.000001 0.000000 34.804684 -28.227756 4.501881 0.000001 3.819490 0.000001 -27.019009 21.578251 30.055735 0.000001 4.004300 0.000001 -9.148520 -9.132363 25.530986 0.000000 0.590316 -1.362270 0.000000 -0.000003 0.000004 
-0.336433 -7.465036 -0.188872 -2.272011 17.764574 0.164751 0.000000 -2.776948 0.000000 -7.688666 -20.168524 1.410338 0.000000 -2.213881 -0.000001 2.841552 13.402739 -1.919984 0.000000 -1.407682 -0.181637 5.989244 5.211804 -2.310538 0.365767 -1.787589 0.048012 -18.581904 -7.543858 -3.238776 1.305159 0.000000 -0.000001 6.469121 -9.618531 12.737393 2.559211 0.000001 -0.000000 3.007811 -4.508928 -1.933607 2.378452 0.000002 0.000000 -3.677863 -3.859121 -18.545543 -0.360721 -1.787589 0.048012 14.478768 0.106289 4.775960 -1.305160 -0.000000 -0.000000 -18.966889 26.639174 -15.536753 -2.559210 -0.000002 -0.000001 44.170546 -29.847186 -79.274331 -2.378451 -0.000001 0.000000 31.472603 9.256402 1.863138 0.908180 -0.000000 0.000001 -28.579070 -29.980965 -30.058430 -0.000001 3.819489 0.000001 13.815277 31.501717 -19.964814 -0.000000 4.004300 0.000001 7.123929 1.264086 -17.684605 -0.000000 0.590317 -1.362270 -0.000003 -0.000004 0.000004 -0.908180 -0.000001 0.000001 34.784661 -28.219618 4.495565 0.000001 3.819489 0.000001 -26.998773 21.589482 30.029920 0.000000 4.004301 0.000001 -9.187824 -9.148855 25.532499 -0.000000 0.590317 -1.362270 -0.000002 -0.000001 0.000003 
-0.336122 -7.465557 -0.189709 -2.264610 17.765640 0.147545 0.000000 -2.776948 -0.000001 -7.692392 -20.170993 1.416122 -0.000000 -2.213882 -0.000001 2.867138 13.388200 -1.939620 -0.000000 -1.407681 -0.181636 6.006153 5.271349 -2.330744 0.365766 -1.787589 0.048012 -18.568986 -7.557808 -3.203425 1.305161 -0.000002 0.000000 6.503038 -9.681839 12.743593 2.559210 0.000002 0.000000 3.029087 -4.482225 -1.960241 2.378450 -0.000000 -0.000000 -3.687807 -3.830379 -18.525496 -0.360721 -1.787590 0.048012 14.491286 0.108738 4.788150 -1.305161 -0.000001 -0.000000 -19.018486 26.540643 -15.517505 -2.559210 -0.000003 -0.000001 44.060379 -29.774130 -79.413168 -2.378452 -0.000002 -0.000001 31.486274 9.317292 1.827686 0.908180 -0.000002 0.000000 -28.570003 -29.982734 -30.041528 -0.000001 3.819490 0.000001 13.811102 31.497230 -19.961061 -0.000000 4.004300 0.000001 7.081530 1.281760 -17.684050 -0.000000 0.590317 -1.362269 -0.000001 0.000001 0.000002 -0.908180 -0.000001 0.000000 34.772022 -28.205102 4.489788 -0.000001 3.819489 0.000001 -26.985311 21.579769 30.043509 0.000001 4.004300 0.000001 -9.182938 -9.133513 25.541702 0.000000 0.590317 -1.362269 -0.000000 -0.000002 0.000005 
-0.336073 -7.466215 -0.190791 -2.265066 17.756888 0.141647 0.000000 -2.776946 -0.000001 -7.684542 -20.165690 1.404152 -0.000000 -2.213881 -0.000001 2.869567 13.382983 -1.930684 0.000000 -1.407683 -0.181636 6.048666 5.308747 -2.330407 0.365767 -1.787591 0.048012 -18.593337 -7.553729 -3.201114 1.305159 0.000003 -0.000000 6.571655 -9.710301 12.793742 2.559211 -0.000001 -0.000000 3.045667 -4.451690 -1.982459 2.378448 -0.000000 -0.000001 -3.675475 -3.800660 -18.534478 -0.360721 -1.787593 0.048012 14.492599 0.109099 4.817219 -1.305161 0.000003 -0.000000 -19.037733 26.569793 -15.518678 -2.559210 -0.000002 -0.000000 44.104082 -29.787479 -79.399269 -2.378451 -0.000001 0.000000 31.469991 9.336411 1.821423 0.908180 0.000000 -0.000000 -28.549373 -29.965901 -30.035501 -0.000000 3.819490 0.000001 13.787272 31.480178 -19.952494 -0.000000 4.004300 0.000001 7.101694 1.300193 -17.671156 -0.000000 0.590317 -1.362269 -0.000000 -0.000004 0.000006 -0.908180 0.000001 -0.000000 34.760585 -28.196529 4.485555 0.000001 3.819489 0.000001 -26.972883 21.589586 30.054192 0.000001 4.004301 0.000001 -9.157822 -9.096538 25.559285 -0.000000 0.590317 -1.362270 0.000001 -0.000002 0.000010 
-0.335719 -7.466566 -0.191423 -2.254655 17.759586 0.125692 0.000000 -2.776945 -0.000002 -7.674265 -20.172735 1.395539 -0.000000 -2.213881 -0.000000 2.896939 13.369254 -1.941229 0.000000 -1.407680 -0.181636 6.030757 5.360745 -2.334277 0.365767 -1.787590 0.048012 -18.618607 -7.547665 -3.192515 1.305160 0.000000 0.000000 6.618690 -9.745715 12.837627 2.559210 0.000002 -0.000000 3.077122 -4.410776 -2.012257 2.378449 0.000002 -0.000000 -3.655907 -3.760321 -18.572350 -0.360721 -1.787590 0.048012 14.478241 0.106774 4.832961 -1.305161 0.000002 0.000000 -19.062361 26.572276 -15.510794 -2.559209 -0.000001 -0.000001 44.111196 -29.785260 -79.425381 -2.378451 0.000000 -0.000000 31.473904 9.369514 1.831654 0.908180 0.000001 -0.000000 -28.547218 -29.966632 -30.014703 -0.000001 3.819490 0.000001 13.795742 31.474724 -19.941463 -0.000000 4.004299 0.000001 7.101206 1.288012 -17.690134 -0.000000 0.590317 -1.362270 0.000001 -0.000001 0.000004 -0.908180 0.000001 -0.000000 34.743581 -28.186408 4.479384 0.000001 3.819489 0.000001 -26.953173 21.588076 29.990077 0.000001 4.004300 0.000001 -9.193196 -9.126514 25.612779 0.000000 0.590316 -1.362269 0.000000 -0.000005 0.000003 
-0.335732 -7.467042 -0.192031 -2.244553 17.761594 0.113181 0.000000 -2.776946 -0.000001 -7.666281 -20.176655 1.391486 -0.000000 -2.213882 -0.000001 2.927046 13.340907 -1.961352 0.000000 -1.407679 -0.181637 6.012327 5.418252 -2.347960 0.365766 -1.787590 0.048012 -18.636750 -7.543111 -3.199419 1.305160 0.000001 -0.000000 6.653031 -9.753912 12.894758 2.559210 0.000002 -0.000000 3.105933 -4.401084 -2.038189 2.378449 -0.000002 -0.000000 -3.682116 -3.744702 -18.585670 -0.360721 -1.787590 0.048012 14.475642 0.111192 4.840408 -1.305161 0.000002 -0.000000 -19.092054 26.557334 -15.503966 -2.559210 0.000002 0.000000 44.071871 -29.779949 -79.493198 -2.378453 0.000001 -0.000001 31.486984 9.388098 1.841562 0.908180 -0.000000 -0.000000 -28.545900 -29.971389 -30.044612 -0.000001 3.819490 0.000001 13.761177 31.482732 -19.899655 -0.000000 4.004300 0.000001 7.139509 1.291146 -17.685568 -0.000000 0.590317 -1.362270 -0.000001 -0.000001 0.000005 -0.908180 0.000000 -0.000000 34.725624 -28.183480 4.474603 0.000000 3.819489 0.000001 -26.934352 21.596372 29.960929 0.000001 4.004300 0.000001 -9.171302 -9.095368 25.649710 0.000000 0.590316 -1.362270 0.000001 -0.000003 0.000001 
-0.335937 -7.467531 -0.192494 -2.232076 17.768843 0.095304 0.000000 -2.776947 -0.000001 -7.650419 -20.190372 1.393500 -0.000000 -2.213880 -0.000001 2.936439 13.335745 -1.959392 -0.000000 -1.407680 -0.181636 6.013346 5.438504 -2.344958 0.365767 -1.787589 0.048011 -18.661289 -7.506771 -3.213820 1.305159 -0.000000 0.000001 6.687839 -9.785063 12.966791 2.559210 -0.000001 -0.000000 3.124474 -4.374696 -2.062497 2.378448 -0.000003 -0.000001 -3.618775 -3.727419 -18.592598 -0.360721 -1.787588 0.048011 14.485030 0.090291 4.805062 -1.305160 0.000003 0.000000 -19.173294 26.577197 -15.423419 -2.559209 -0.000001 -0.000001 44.024722 -29.799484 -79.582735 -2.378451 -0.000001 -0.000000 31.530424 9.390418 1.863840 0.908180 0.000001 -0.000000 -28.547445 -29.978069 -30.017486 -0.000001 3.819489 0.000001 13.766321 31.463263 -19.922883 -0.000001 4.004301 0.000001 7.107460 1.307664 -17.682603 -0.000000 0.590317 -1.362270 0.000000 0.000003 0.000007 -0.908180 0.000000 0.000001 34.700995 -28.200968 4.471443 0.000001 3.819489 0.000001 -26.912967 21.627241 30.036255 0.000001 4.004302 0.000001 -9.244190 -9.110823 25.595917 0.000000 0.590316 -1.362269 0.000002 -0.000005 0.000004 
-0.335904 -7.468140 -0.192893 -2.216723 17.779093 0.086601 0.000000 -2.776945 -0.000001 -7.643115 -20.210002 1.387427 0.000000 -2.213879 -0.000000 2.915392 13.332055 -1.945697 0.000000 -1.407683 -0.181637 6.082668 5.453429 -2.349085 0.365767 -1.787589 0.048012 -18.678332 -7.502074 -3.213632 1.305160 0.000000 -0.000001 6.700385 -9.762774 13.001556 2.559211 0.000001 -0.000001 3.144440 -4.411980 -2.055402 2.378451 -0.000002 -0.000000 -3.647269 -3.760629 -18.570745 -0.360721 -1.787589 0.048012 14.474737 0.088102 4.812192 -1.305161 -0.000002 0.000000 -19.189920 26.570636 -15.418216 -2.559210 -0.000003 -0.000001 44.003528 -29.785871 -79.634808 -2.378451 0.000002 -0.000000 31.444258 9.409071 1.820310 0.908180 0.000001 0.000000 -28.559883 -29.983721 -30.042628 -0.000001 3.819489 0.000001 13.748223 31.458075 -19.894345 -0.000000 4.004300 0.000001 7.119219 1.319930 -17.678200 -0.000000 0.590317 -1.362269 -0.000003 0.000002 -0.000002 -0.908180 0.000001 0.000001 34.675573 -28.201096 4.464854 0.000000 3.819489 0.000001 -26.887958 21.621520 30.003901 0.000002 4.004301 0.000002 -9.198336 -9.056945 25.615257 -0.000000 0.590317 -1.362270 -0.000001 -0.000001 0.000003 
